<?xml version="1.0" encoding="UTF-8" standalone="no"?>
<!DOCTYPE svg PUBLIC "-//W3C//DTD SVG 1.1//EN"
"http://www.w3.org/Graphics/SVG/1.1/DTD/svg11.dtd">
<svg version="1.1" xmlns="http://www.w3.org/2000/svg" xmlns:xlink="http://www.w3.org/1999/xlink">
<defs>
<style type="text/css"><![CDATA[
.g1_45{
fill: #FFFFFF;
}
.g2_45{
fill: none;
stroke: #CCCCCC;
stroke-width: 1;
stroke-linecap: butt;
stroke-linejoin: miter;
}
]]></style>
</defs>
<path fill-rule="evenodd" d="M0,1210l935,0L935,0L0,0L0,1210Z" class="g1_45" />
<path d="M106.5,581.5l0,-4" class="g2_45" />
<path d="M106.5,578.5l0,-1" class="g2_45" />
<path d="M107.5,578.5l337,0" class="g2_45" />
<path d="M444.5,581.5l0,-3" class="g2_45" />
<path d="M444.5,578.5l0,-1" class="g2_45" />
<path d="M445.5,578.5l128,0" class="g2_45" />
<path d="M573.5,581.5l0,-3" class="g2_45" />
<path d="M573.5,578.5l0,-1" class="g2_45" />
<path d="M574.5,578.5l112,0" class="g2_45" />
<path d="M686.5,581.5l0,-3" class="g2_45" />
<path d="M686.5,578.5l0,-1" class="g2_45" />
<path d="M687.5,578.5l113,0" class="g2_45" />
<path d="M800.5,581.5l0,-4" class="g2_45" />
<path d="M800.5,578.5l0,-1" class="g2_45" />
<path d="M106.5,608.5l0,-27" class="g2_45" />
<path d="M444.5,608.5l0,-27" class="g2_45" />
<path d="M573.5,608.5l0,-27" class="g2_45" />
<path d="M686.5,608.5l0,-27" class="g2_45" />
<path d="M800.5,608.5l0,-27" class="g2_45" />
<path d="M106.5,612.5l0,-4" class="g2_45" />
<path d="M107.5,609.5l337,0" class="g2_45" />
<path d="M444.5,612.5l0,-4" class="g2_45" />
<path d="M445.5,609.5l128,0" class="g2_45" />
<path d="M573.5,612.5l0,-4" class="g2_45" />
<path d="M574.5,609.5l112,0" class="g2_45" />
<path d="M686.5,612.5l0,-4" class="g2_45" />
<path d="M687.5,609.5l113,0" class="g2_45" />
<path d="M800.5,612.5l0,-4" class="g2_45" />
<path d="M106.5,663.5l0,-51" class="g2_45" />
<path d="M444.5,663.5l0,-51" class="g2_45" />
<path d="M573.5,663.5l0,-51" class="g2_45" />
<path d="M686.5,663.5l0,-51" class="g2_45" />
<path d="M800.5,663.5l0,-51" class="g2_45" />
<path d="M106.5,667.5l0,-4" class="g2_45" />
<path d="M107.5,664.5l337,0" class="g2_45" />
<path d="M444.5,667.5l0,-4" class="g2_45" />
<path d="M445.5,664.5l128,0" class="g2_45" />
<path d="M573.5,667.5l0,-4" class="g2_45" />
<path d="M574.5,664.5l112,0" class="g2_45" />
<path d="M686.5,667.5l0,-4" class="g2_45" />
<path d="M687.5,664.5l113,0" class="g2_45" />
<path d="M800.5,667.5l0,-4" class="g2_45" />
<path d="M106.5,694.5l0,-27" class="g2_45" />
<path d="M444.5,694.5l0,-27" class="g2_45" />
<path d="M573.5,694.5l0,-27" class="g2_45" />
<path d="M686.5,694.5l0,-27" class="g2_45" />
<path d="M800.5,694.5l0,-27" class="g2_45" />
<path d="M106.5,698.5l0,-4" class="g2_45" />
<path d="M107.5,695.5l337,0" class="g2_45" />
<path d="M444.5,698.5l0,-4" class="g2_45" />
<path d="M445.5,695.5l128,0" class="g2_45" />
<path d="M573.5,698.5l0,-4" class="g2_45" />
<path d="M574.5,695.5l112,0" class="g2_45" />
<path d="M686.5,698.5l0,-4" class="g2_45" />
<path d="M687.5,695.5l113,0" class="g2_45" />
<path d="M800.5,698.5l0,-4" class="g2_45" />
<path d="M106.5,725.5l0,-27" class="g2_45" />
<path d="M444.5,725.5l0,-27" class="g2_45" />
<path d="M573.5,725.5l0,-27" class="g2_45" />
<path d="M686.5,725.5l0,-27" class="g2_45" />
<path d="M800.5,725.5l0,-27" class="g2_45" />
<path d="M106.5,729.5l0,-4" class="g2_45" />
<path d="M107.5,726.5l337,0" class="g2_45" />
<path d="M444.5,729.5l0,-4" class="g2_45" />
<path d="M445.5,726.5l128,0" class="g2_45" />
<path d="M573.5,729.5l0,-4" class="g2_45" />
<path d="M574.5,726.5l112,0" class="g2_45" />
<path d="M686.5,729.5l0,-4" class="g2_45" />
<path d="M687.5,726.5l113,0" class="g2_45" />
<path d="M800.5,729.5l0,-4" class="g2_45" />
<path d="M106.5,756.5l0,-27" class="g2_45" />
<path d="M444.5,756.5l0,-27" class="g2_45" />
<path d="M573.5,756.5l0,-27" class="g2_45" />
<path d="M686.5,756.5l0,-27" class="g2_45" />
<path d="M800.5,756.5l0,-27" class="g2_45" />
<path d="M106.5,761.5l0,-5" class="g2_45" />
<path d="M107.5,758.5l337,0" class="g2_45" />
<path d="M444.5,761.5l0,-5" class="g2_45" />
<path d="M445.5,758.5l128,0" class="g2_45" />
<path d="M573.5,761.5l0,-5" class="g2_45" />
<path d="M574.5,758.5l112,0" class="g2_45" />
<path d="M686.5,761.5l0,-5" class="g2_45" />
<path d="M687.5,758.5l113,0" class="g2_45" />
<path d="M800.5,761.5l0,-5" class="g2_45" />
<path d="M106.5,788.5l0,-27" class="g2_45" />
<path d="M444.5,788.5l0,-27" class="g2_45" />
<path d="M573.5,788.5l0,-27" class="g2_45" />
<path d="M686.5,788.5l0,-27" class="g2_45" />
<path d="M800.5,788.5l0,-27" class="g2_45" />
<path d="M106.5,792.5l0,-4" class="g2_45" />
<path d="M107.5,789.5l337,0" class="g2_45" />
<path d="M444.5,792.5l0,-4" class="g2_45" />
<path d="M445.5,789.5l128,0" class="g2_45" />
<path d="M573.5,792.5l0,-4" class="g2_45" />
<path d="M574.5,789.5l112,0" class="g2_45" />
<path d="M686.5,792.5l0,-4" class="g2_45" />
<path d="M687.5,789.5l113,0" class="g2_45" />
<path d="M800.5,792.5l0,-4" class="g2_45" />
<path d="M106.5,843.5l0,-51" class="g2_45" />
<path d="M444.5,843.5l0,-51" class="g2_45" />
<path d="M573.5,843.5l0,-51" class="g2_45" />
<path d="M686.5,843.5l0,-51" class="g2_45" />
<path d="M800.5,843.5l0,-51" class="g2_45" />
<path d="M106.5,847.5l0,-4" class="g2_45" />
<path d="M107.5,844.5l337,0" class="g2_45" />
<path d="M444.5,847.5l0,-4" class="g2_45" />
<path d="M445.5,844.5l128,0" class="g2_45" />
<path d="M573.5,847.5l0,-4" class="g2_45" />
<path d="M574.5,844.5l112,0" class="g2_45" />
<path d="M686.5,847.5l0,-4" class="g2_45" />
<path d="M687.5,844.5l113,0" class="g2_45" />
<path d="M800.5,847.5l0,-4" class="g2_45" />
<path d="M106.5,874.5l0,-27" class="g2_45" />
<path d="M444.5,874.5l0,-27" class="g2_45" />
<path d="M573.5,874.5l0,-27" class="g2_45" />
<path d="M686.5,874.5l0,-27" class="g2_45" />
<path d="M800.5,874.5l0,-27" class="g2_45" />
<path d="M106.5,878.5l0,-4" class="g2_45" />
<path d="M107.5,875.5l337,0" class="g2_45" />
<path d="M444.5,878.5l0,-4" class="g2_45" />
<path d="M445.5,875.5l128,0" class="g2_45" />
<path d="M573.5,878.5l0,-4" class="g2_45" />
<path d="M574.5,875.5l112,0" class="g2_45" />
<path d="M686.5,878.5l0,-4" class="g2_45" />
<path d="M687.5,875.5l113,0" class="g2_45" />
<path d="M800.5,878.5l0,-4" class="g2_45" />
<path d="M106.5,905.5l0,-27" class="g2_45" />
<path d="M444.5,905.5l0,-27" class="g2_45" />
<path d="M573.5,905.5l0,-27" class="g2_45" />
<path d="M686.5,905.5l0,-27" class="g2_45" />
<path d="M800.5,905.5l0,-27" class="g2_45" />
<path d="M106.5,909.5l0,-4" class="g2_45" />
<path d="M107.5,906.5l337,0" class="g2_45" />
<path d="M444.5,909.5l0,-4" class="g2_45" />
<path d="M445.5,906.5l128,0" class="g2_45" />
<path d="M573.5,909.5l0,-4" class="g2_45" />
<path d="M574.5,906.5l112,0" class="g2_45" />
<path d="M686.5,909.5l0,-4" class="g2_45" />
<path d="M687.5,906.5l113,0" class="g2_45" />
<path d="M800.5,909.5l0,-4" class="g2_45" />
<path d="M106.5,936.5l0,-27" class="g2_45" />
<path d="M444.5,936.5l0,-27" class="g2_45" />
<path d="M573.5,936.5l0,-27" class="g2_45" />
<path d="M686.5,936.5l0,-27" class="g2_45" />
<path d="M800.5,936.5l0,-27" class="g2_45" />
<path d="M106.5,945.5l0,-9" class="g2_45" />
<path d="M107.5,937.5l337,0" class="g2_45" />
<path d="M444.5,945.5l0,-9" class="g2_45" />
<path d="M445.5,937.5l128,0" class="g2_45" />
<path d="M573.5,945.5l0,-9" class="g2_45" />
<path d="M574.5,937.5l112,0" class="g2_45" />
<path d="M686.5,945.5l0,-9" class="g2_45" />
<path d="M687.5,937.5l113,0" class="g2_45" />
<path d="M800.5,945.5l0,-9" class="g2_45" />
<path d="M106.5,979.5l0,-34" class="g2_45" />
<path d="M106.5,980.5l0,-1" class="g2_45" />
<path d="M106.5,980.5l0,-1" class="g2_45" />
<path d="M107.5,980.5l337,0" class="g2_45" />
<path d="M444.5,979.5l0,-34" class="g2_45" />
<path d="M444.5,980.5l0,-1" class="g2_45" />
<path d="M445.5,980.5l128,0" class="g2_45" />
<path d="M573.5,979.5l0,-34" class="g2_45" />
<path d="M573.5,980.5l0,-1" class="g2_45" />
<path d="M574.5,980.5l112,0" class="g2_45" />
<path d="M686.5,979.5l0,-34" class="g2_45" />
<path d="M686.5,980.5l0,-1" class="g2_45" />
<path d="M687.5,980.5l113,0" class="g2_45" />
<path d="M800.5,979.5l0,-34" class="g2_45" />
<path d="M800.5,980.5l0,-1" class="g2_45" />
<path d="M800.5,980.5l0,-1" class="g2_45" />
<image x="165" y="109" width="715" height="413" xlink:href="img/1.png" />
</svg>